<svg width="22" height="29" viewBox="0 0 22 29" fill="none" xmlns="http://www.w3.org/2000/svg">
<path d="M8.48841 0.0344304C8.56749 0.0352231 8.64804 0.0500282 8.71952 0.07936C8.8656 0.134785 8.98163 0.242609 9.0447 0.376241C9.10711 0.509912 9.11008 0.66057 9.0545 0.798204C9.0545 0.798204 8.95666 1.61001 8.63388 2.93892C7.59329 7.24072 5.86969 11.3817 3.52045 15.2319L2.51405 16.7358C2.48759 16.8045 2.44559 16.8687 2.38833 16.9222C2.33375 16.9761 2.26922 17.019 2.1946 17.0485C2.12068 17.0785 2.04258 17.0942 1.96033 17.096C1.88125 17.0952 1.80068 17.0804 1.7292 17.0511C0.758943 16.7058 2.52524 11.3955 2.8719 10.4682C3.43753 8.92334 4.81168 5.61771 5.60167 4.16028C6.30732 2.87027 7.08789 1.61183 7.93468 0.394645C7.96114 0.325906 8.00314 0.261754 8.0604 0.208281C8.11498 0.154356 8.17951 0.111449 8.25413 0.081977C8.32809 0.0525447 8.40682 0.0362288 8.48841 0.0344304Z" fill="white"/>
<path d="M21.234 23.5128C21.2482 23.5906 21.249 23.6725 21.2337 23.7482C21.207 23.9022 21.1231 24.0365 21.0039 24.1238C20.8844 24.2104 20.7371 24.2419 20.5914 24.2134C20.5914 24.2134 19.7758 24.2712 18.4098 24.2062C13.9887 23.9999 9.59611 23.0924 5.37037 21.5156L3.70301 20.8125C3.6305 20.7995 3.5595 20.7705 3.49614 20.7244C3.43285 20.681 3.37849 20.6258 3.33541 20.5581C3.2919 20.4912 3.26176 20.4175 3.24437 20.3371C3.23016 20.2593 3.22942 20.1774 3.24467 20.1016C3.39979 19.0835 8.94858 19.8112 9.92481 19.9758C11.5489 20.2384 15.055 20.961 16.6358 21.4605C18.0362 21.9088 19.4197 22.4367 20.7754 23.0374C20.8479 23.0503 20.9188 23.0794 20.9822 23.1255C21.0455 23.1689 21.0998 23.2241 21.1429 23.2918C21.1858 23.3588 21.2168 23.433 21.234 23.5128Z" fill="white"/>
<path d="M18.8566 8.7039C18.92 8.75116 18.9763 8.8106 19.0167 8.87644C19.1021 9.00733 19.1322 9.16283 19.1044 9.30795C19.076 9.45271 18.9896 9.57615 18.8635 9.65456C18.8635 9.65456 18.3059 10.2526 17.2617 11.1357C13.8851 13.997 10.0516 16.3256 5.88416 18.0506L4.18466 18.672C4.12276 18.7119 4.05099 18.739 3.97321 18.7485C3.89734 18.7599 3.81992 18.7565 3.74227 18.7363C3.66485 18.717 3.59256 18.6835 3.52505 18.6365C3.46164 18.5893 3.40528 18.5298 3.36483 18.464C2.78469 17.6131 7.34202 14.3651 8.16874 13.8204C9.53637 12.9061 12.5951 11.0461 14.0925 10.3346C15.423 9.70866 16.7954 9.15235 18.1969 8.66841C18.2588 8.62849 18.3306 8.60143 18.4083 8.59199C18.4842 8.58061 18.5616 8.584 18.6393 8.60418C18.7164 8.62401 18.7896 8.65725 18.8566 8.7039Z" fill="white"/>
</svg>
